<svg xmlns="http://www.w3.org/2000/svg" viewBox="0 0 24 24" id="codeigniter"><path fill="#303c42" d="m16.872 8.646-.097-.063a.5.5 0 0 0-.771.485.677.677 0 0 1-.172.558A1.161 1.161 0 0 1 15 10c-.463 0-1-.437-1-1 0-.877.11-1.228.228-1.601.133-.428.272-.87.272-1.899 0-2.027-.24-3.079-2.656-5.363a.5.5 0 0 0-.834.461c.573 2.865-1.182 4.37-3.402 6.275-.65.557-1.321 1.133-1.962 1.773C2.633 11.66 2 14.308 2 16c0 2.983 1.108 6.79 6.39 7.987a.501.501 0 0 0 .449-.856c-1.956-1.8-2.339-2.694-2.339-3.632 0-.688.405-1.678 1.189-2.584.004.45.118.841.342 1.17.578.848 1.653.914 1.969.914 1.178 0 2-1.028 2-2.5 0-.796-.545-1.376-1.071-1.935C10.451 14.055 10 13.576 10 13c0-.437.104-.83.239-1.157.184.341.484.707.965 1.061.252.185.62.419 1.053.692C13.914 14.645 17 16.598 17 18.499c0 2.477-.906 3.239-2.792 4.594a.501.501 0 0 0 .399.894C18.241 23.192 22 19.986 22 16c0-3.975-3.464-6.257-5.128-7.354z"></path><path fill="#e53935" d="M16.993 21.976c.648-.84 1.007-1.874 1.007-3.477 0-2.451-3.26-4.516-5.208-5.749-.409-.259-.758-.479-.996-.654-.998-.733-.825-1.424-.82-1.441a.501.501 0 0 0-.832-.506C10.097 10.196 9 11.33 9 13c0 .972.638 1.65 1.2 2.249.411.437.8.851.8 1.251 0 .897-.402 1.5-1 1.5-.395 0-.902-.125-1.143-.478-.255-.375-.218-1.011.107-1.84a.5.5 0 0 0-.758-.588C6.347 16.442 5.5 18.323 5.5 19.499c0 .883.229 1.707 1.209 2.878C4.246 21.232 3 19.094 3 16c0-1.502.582-3.875 3.354-6.646.613-.613 1.27-1.177 1.904-1.721 1.936-1.661 3.78-3.243 3.86-5.8C13.369 3.212 13.5 4.021 13.5 5.5c0 .877-.11 1.228-.228 1.601C13.139 7.528 13 7.97 13 9c0 1.065.935 2 2 2 .594 0 1.202-.274 1.587-.717.117-.135.212-.281.281-.437C18.489 10.95 21 12.937 21 16c0 2.492-1.804 4.691-4.007 5.976z"></path><path d="M16.868 9.845a1.73 1.73 0 0 1-.281.437c-.013.015-.032.027-.046.042C18.102 11.488 20 13.337 20 16c0 1.824-.971 3.488-2.354 4.754a4.48 4.48 0 0 1-.653 1.222C19.196 20.691 21 18.492 21 16c0-3.063-2.511-5.05-4.132-6.155z" opacity=".1"></path><path fill="#fff" d="M3.561 16.561c0-1.502.582-3.875 3.354-6.646.613-.613 1.27-1.177 1.904-1.721 1.906-1.636 3.715-3.199 3.847-5.688a7.842 7.842 0 0 0-.548-.673c-.08 2.557-1.925 4.139-3.86 5.8-.635.543-1.291 1.107-1.904 1.72C3.582 12.125 3 14.498 3 16c0 2.359.729 4.158 2.164 5.389-1.059-1.196-1.603-2.803-1.603-4.828z" opacity=".2"></path><linearGradient id="a" x1="4.256" x2="21.888" y1="9.454" y2="17.676" gradientUnits="userSpaceOnUse"><stop offset="0" stop-color="#fff" stop-opacity=".2"></stop><stop offset="1" stop-color="#fff" stop-opacity="0"></stop></linearGradient><path fill="url(#a)" d="m16.872 8.646-.097-.063a.5.5 0 0 0-.771.485.677.677 0 0 1-.172.558A1.161 1.161 0 0 1 15 10c-.463 0-1-.437-1-1 0-.877.11-1.228.228-1.601.133-.428.272-.87.272-1.899 0-2.027-.24-3.079-2.656-5.363a.5.5 0 0 0-.834.461c.573 2.865-1.182 4.37-3.402 6.275-.65.557-1.321 1.133-1.962 1.773C2.633 11.66 2 14.308 2 16c0 2.983 1.108 6.79 6.39 7.987a.501.501 0 0 0 .449-.856c-1.956-1.8-2.339-2.694-2.339-3.632 0-.688.405-1.678 1.189-2.584.004.45.118.841.342 1.17.578.848 1.653.914 1.969.914 1.178 0 2-1.028 2-2.5 0-.796-.545-1.376-1.071-1.935C10.451 14.055 10 13.576 10 13c0-.437.104-.83.239-1.157.184.341.484.707.965 1.061.252.185.62.419 1.053.692C13.914 14.645 17 16.598 17 18.499c0 2.477-.906 3.239-2.792 4.594a.501.501 0 0 0 .399.894C18.241 23.192 22 19.986 22 16c0-3.975-3.464-6.257-5.128-7.354z"></path></svg>